# xmcd
#
# Track frame offsets:
# 182
# 31577
# 44215
# 69777
# 76780
# 86267
# 92600
# 104937
# 125160
# 141287
# 165217
# 184440
# 200890
# 222127
# 238115
# 260150
# 279662
# 303100
#
# Disc length: 4363 seconds
#
#
# Revision: 4
# Processed by: cddbd v1.5.2PL0 Copyright (c) Steve Scherf et al.
# Submitted via: FreeRIP 2.945 
#
DISCID=06110912
DTITLE=de Larrocha, Alicia - Alicia de Larrocha plays Granados, Espla, and Rodrigo CD2
DYEAR=1989
DGENRE=Piano
TTITLE0=Oscar Espla: Sonata Española - 1. Andante romantico
TTITLE1=Oscar Espla: Sonata Española - 2. Mazurka sopra un tema popolare
TTITLE2=Oscar Espla: Sonata Española - 3. Allegro brioso
TTITLE3=Rodrigo: Danzas de España - 1. Rustico
TTITLE4=Rodrigo: Danzas de España - 2. Danza de las Tres Doncellas
TTITLE5=Rodrigo: Danzas de España - 3. Serrana
TTITLE6=Granados: Danzas Españolas, No.1 in G
TTITLE7=Granados: Danzas Españolas, No. 2 in C minor
TTITLE8=Granados: Danzas Españolas, No. 3 in D
TTITLE9=Granados: Danzas Españolas, ,No. 4 in G
TTITLE10=Granados: Danzas Españolas, No. 5 in E minor
TTITLE11=Granados: Danzas Españolas, No. 6 in D
TTITLE12=Granados: Danzas Españolas, No. 7 in G
TTITLE13=Granados: Danzas Españolas, No. 8 in C
TTITLE14=Granados: Danzas Españolas, No. 9 in B flat
TTITLE15=Granados: Danzas Españolas, No. 10 in G
TTITLE16=Granados: Danzas Españolas, No. 11 in G minor
TTITLE17=Granados: Danzas Españolas, No. 12 in A minor
EXTD=YEAR: 1958
EXTT0=Oscar Espl  (1886-1976]\nSonata Espa ola, Op. 53
EXTT1=Oscar Espl  (1886-1976]\nSonata Espa ola, Op. 53
EXTT2=Oscar Espl  (1886-1976]\nSonata Espa ola, Op. 53
EXTT3=Joaquin Rodrigo (1901-\nDanzas de Espa a
EXTT4=Oscar Espl  (1886-1976]\nSonata Espa ola, Op. 53
EXTT5=Oscar Espl  (1886-1976]\nSonata Espa ola, Op. 53
EXTT6=Enrique Granados (1867-1916)
EXTT7=
EXTT8=
EXTT9=
EXTT10=
EXTT11=
EXTT12=
EXTT13=
EXTT14=
EXTT15=
EXTT16=
EXTT17=
PLAYORDER=
